<svg width="231" height="42" viewBox="0 0 231 42" fill="none" xmlns="http://www.w3.org/2000/svg">
<path d="M10.7223 33.1322H23.8833V40.7796H0.334961V33.4034L12.9521 18.1627H0.443728V10.5152H23.6114V17.8915L10.7223 33.1322ZM42.814 41.2135C39.8412 41.2135 37.1581 40.5809 34.7652 39.3152C32.4084 38.0496 30.5415 36.2419 29.1636 33.8915C27.8223 31.5411 27.1514 28.7932 27.1514 25.6474C27.1514 22.5378 27.8401 19.8079 29.218 17.4576C30.5959 15.0712 32.4811 13.2452 34.874 11.9796C37.2669 10.7141 39.9499 10.0813 42.9228 10.0813C45.8957 10.0813 48.5787 10.7141 50.9716 11.9796C53.3645 13.2452 55.2497 15.0712 56.6276 17.4576C58.0055 19.8079 58.6942 22.5378 58.6942 25.6474C58.6942 28.7572 57.9872 31.5051 56.5732 33.8915C55.1953 36.2419 53.2919 38.0496 50.8629 39.3152C48.47 40.5809 45.7869 41.2135 42.814 41.2135ZM42.814 33.1864C44.5904 33.1864 46.0953 32.5356 47.3279 31.2339C48.597 29.9322 49.2313 28.0699 49.2313 25.6474C49.2313 23.2249 48.6149 21.3627 47.3823 20.061C46.1858 18.7593 44.6992 18.1085 42.9228 18.1085C41.1099 18.1085 39.6054 18.7593 38.4089 20.061C37.2125 21.3265 36.6142 23.1887 36.6142 25.6474C36.6142 28.0699 37.1942 29.9322 38.3545 31.2339C39.551 32.5356 41.0376 33.1864 42.814 33.1864ZM77.4414 41.2135C74.4685 41.2135 71.7854 40.5809 69.3925 39.3152C67.0358 38.0496 65.1689 36.2419 63.791 33.8915C62.4497 31.5411 61.7788 28.7932 61.7788 25.6474C61.7788 22.5378 62.4675 19.8079 63.8454 17.4576C65.2232 15.0712 67.1084 13.2452 69.5013 11.9796C71.8942 10.7141 74.5773 10.0813 77.5502 10.0813C80.523 10.0813 83.2061 10.7141 85.599 11.9796C87.9919 13.2452 89.8771 15.0712 91.2549 17.4576C92.6328 19.8079 93.3215 22.5378 93.3215 25.6474C93.3215 28.7572 92.6146 31.5051 91.2006 33.8915C89.8227 36.2419 87.9193 38.0496 85.4902 39.3152C83.0973 40.5809 80.4142 41.2135 77.4414 41.2135ZM77.4414 33.1864C79.2178 33.1864 80.7227 32.5356 81.9553 31.2339C83.2244 29.9322 83.8587 28.0699 83.8587 25.6474C83.8587 23.2249 83.2422 21.3627 82.0097 20.061C80.8132 18.7593 79.3266 18.1085 77.5502 18.1085C75.7372 18.1085 74.2327 18.7593 73.0363 20.061C71.8398 21.3265 71.2416 23.1887 71.2416 25.6474C71.2416 28.0699 71.8216 29.9322 72.9819 31.2339C74.1783 32.5356 75.665 33.1864 77.4414 33.1864ZM115.169 32.9152V40.7796H110.437C107.065 40.7796 104.437 39.9661 102.552 38.339C100.666 36.6758 99.7236 33.9818 99.7236 30.2576V18.2169H96.0255V10.5152H99.7236V3.13896H109.023V10.5152H115.114V18.2169H109.023V30.3661C109.023 31.2699 109.241 31.9207 109.676 32.3186C110.111 32.7165 110.836 32.9152 111.851 32.9152H115.169ZM134.162 41.2135C131.189 41.2135 128.506 40.5809 126.113 39.3152C123.757 38.0496 121.89 36.2419 120.512 33.8915C119.171 31.5411 118.5 28.7932 118.5 25.6474C118.5 22.5378 119.188 19.8079 120.566 17.4576C121.944 15.0712 123.829 13.2452 126.222 11.9796C128.615 10.7141 131.298 10.0813 134.271 10.0813C137.244 10.0813 139.927 10.7141 142.32 11.9796C144.713 13.2452 146.598 15.0712 147.976 17.4576C149.354 19.8079 150.042 22.5378 150.042 25.6474C150.042 28.7572 149.335 31.5051 147.921 33.8915C146.544 36.2419 144.64 38.0496 142.211 39.3152C139.818 40.5809 137.135 41.2135 134.162 41.2135ZM134.162 33.1864C135.939 33.1864 137.444 32.5356 138.676 31.2339C139.945 29.9322 140.58 28.0699 140.58 25.6474C140.58 23.2249 139.963 21.3627 138.731 20.061C137.534 18.7593 136.047 18.1085 134.271 18.1085C132.458 18.1085 130.954 18.7593 129.757 20.061C128.561 21.3265 127.963 23.1887 127.963 25.6474C127.963 28.0699 128.542 29.9322 129.703 31.2339C130.899 32.5356 132.386 33.1864 134.162 33.1864ZM168.79 41.2135C165.817 41.2135 163.134 40.5809 160.741 39.3152C158.384 38.0496 156.517 36.2419 155.139 33.8915C153.798 31.5411 153.127 28.7932 153.127 25.6474C153.127 22.5378 153.816 19.8079 155.194 17.4576C156.572 15.0712 158.457 13.2452 160.85 11.9796C163.242 10.7141 165.926 10.0813 168.898 10.0813C171.871 10.0813 174.554 10.7141 176.947 11.9796C179.34 13.2452 181.225 15.0712 182.603 17.4576C183.981 19.8079 184.67 22.5378 184.67 25.6474C184.67 28.7572 183.963 31.5051 182.549 33.8915C181.171 36.2419 179.268 38.0496 176.839 39.3152C174.446 40.5809 171.762 41.2135 168.79 41.2135ZM168.79 33.1864C170.566 33.1864 172.071 32.5356 173.304 31.2339C174.573 29.9322 175.207 28.0699 175.207 25.6474C175.207 23.2249 174.59 21.3627 173.358 20.061C172.161 18.7593 170.675 18.1085 168.898 18.1085C167.085 18.1085 165.581 18.7593 164.385 20.061C163.188 21.3265 162.59 23.1887 162.59 25.6474C162.59 28.0699 163.17 29.9322 164.33 31.2339C165.527 32.5356 167.013 33.1864 168.79 33.1864ZM198.903 0.644043V40.7796H189.603V0.644043H198.903ZM217.988 41.2135C215.341 41.2135 212.984 40.7614 210.918 39.8576C208.851 38.9538 207.22 37.7241 206.023 36.1695C204.827 34.5784 204.156 32.8068 204.011 30.8542H213.202C213.311 31.9029 213.8 32.7525 214.67 33.4034C215.54 34.0542 216.61 34.3796 217.879 34.3796C219.039 34.3796 219.927 34.1627 220.544 33.7288C221.196 33.2589 221.523 32.6623 221.523 31.939C221.523 31.0712 221.069 30.4385 220.163 30.0407C219.257 29.6068 217.788 29.1368 215.758 28.6305C213.583 28.1241 211.77 27.6 210.32 27.0576C208.869 26.4792 207.619 25.5932 206.567 24.4C205.515 23.1706 204.99 21.5254 204.99 19.4644C204.99 17.7288 205.461 16.1559 206.404 14.7457C207.383 13.2994 208.797 12.1604 210.646 11.3288C212.531 10.4971 214.761 10.0813 217.335 10.0813C221.142 10.0813 224.133 11.0215 226.308 12.9017C228.52 14.7819 229.789 17.2768 230.115 20.3864H221.523C221.378 19.3378 220.906 18.5062 220.109 17.8915C219.347 17.2768 218.332 16.9695 217.063 16.9695C215.975 16.9695 215.141 17.1864 214.561 17.6203C213.982 18.0181 213.691 18.5785 213.691 19.3017C213.691 20.1695 214.145 20.8203 215.051 21.2542C215.994 21.6881 217.444 22.122 219.402 22.5559C221.65 23.1344 223.48 23.713 224.894 24.2915C226.308 24.8339 227.541 25.7378 228.593 27.0034C229.68 28.2326 230.242 29.8962 230.279 31.9932C230.279 33.7648 229.771 35.3559 228.756 36.7661C227.777 38.1402 226.345 39.225 224.459 40.0203C222.61 40.8157 220.453 41.2135 217.988 41.2135Z" fill="black"/>
</svg>
