<svg width="72" height="73" viewBox="0 0 72 73" fill="none" xmlns="http://www.w3.org/2000/svg">
<mask id="mask0_1_153" style="mask-type:luminance" maskUnits="userSpaceOnUse" x="0" y="0" width="72" height="73">
<path d="M48.4358 0.694824H23.3682C10.4623 0.694824 0 11.1289 0 23.9999V48.9999C0 61.8709 10.4623 72.305 23.3682 72.305H48.4358C61.3417 72.305 71.804 61.8709 71.804 48.9999V23.9999C71.804 11.1289 61.3417 0.694824 48.4358 0.694824Z" fill="white"/>
</mask>
<g mask="url(#mask0_1_153)">
<path d="M48.4358 0.694824H23.3682C10.4623 0.694824 0 11.1289 0 23.9999V48.9999C0 61.8709 10.4623 72.305 23.3682 72.305H48.4358C61.3417 72.305 71.804 61.8709 71.804 48.9999V23.9999C71.804 11.1289 61.3417 0.694824 48.4358 0.694824Z" fill="url(#paint0_linear_1_153)"/>
<mask id="mask1_1_153" style="mask-type:luminance" maskUnits="userSpaceOnUse" x="15" y="16" width="42" height="41">
<path d="M56.0839 16.3728H15.7207V56.627H56.0839V16.3728Z" fill="white"/>
</mask>
<g mask="url(#mask1_1_153)">
<path fill-rule="evenodd" clip-rule="evenodd" d="M49.8021 16.6545C50.6378 16.3509 51.5428 16.2915 52.4108 16.4831C53.2788 16.6748 54.0742 17.1097 54.703 17.7365C55.3318 18.3634 55.7686 19.1564 55.9611 20.0221C56.1535 20.8878 56.0945 21.7903 55.7903 22.6237L45.4862 53.424C45.2355 54.1808 44.7945 54.8609 44.2048 55.399C43.615 55.9372 42.897 56.3156 42.1188 56.4978C41.3426 56.6859 40.5306 56.6698 39.7624 56.4512C38.9942 56.2325 38.2962 55.8185 37.7365 55.2499L32.2068 49.7609L26.4003 52.7567C26.1777 52.8719 25.9289 52.927 25.6783 52.9173C25.4278 52.9071 25.1843 52.8317 24.9718 52.699C24.7592 52.5664 24.5851 52.3808 24.4665 52.1605C24.348 51.9401 24.289 51.6927 24.2956 51.4427L24.5349 42.288L44.8463 27.575C45.038 27.4362 45.2003 27.2612 45.3239 27.0598C45.4475 26.8585 45.5304 26.6348 45.5673 26.4016C45.6047 26.1684 45.5954 25.9302 45.5402 25.7006C45.4849 25.4709 45.3846 25.2544 45.2457 25.0634C45.1064 24.8723 44.9309 24.7105 44.7291 24.587C44.5273 24.4636 44.3029 24.3811 44.0692 24.3441C43.8351 24.3071 43.5963 24.3165 43.3661 24.3715C43.1358 24.4266 42.9187 24.5264 42.7271 24.6651L22.0728 39.6282L17.085 34.6539C16.5475 34.1177 16.1512 33.4573 15.9314 32.7314C15.7115 32.0055 15.6751 31.2367 15.8251 30.4934C15.976 29.6807 16.341 28.9227 16.8826 28.2972C17.4242 27.6716 18.123 27.2011 18.9071 26.9337H18.9158L49.7995 16.6517L49.8021 16.6545Z" fill="white"/>
</g>
</g>
<defs>
<linearGradient id="paint0_linear_1_153" x1="-7.06468e-07" y1="0.48296" x2="64.8129" y2="72.2674" gradientUnits="userSpaceOnUse">
<stop offset="0.08" stop-color="#1EB7FB"/>
<stop offset="1" stop-color="#1E84F4"/>
</linearGradient>
</defs>
</svg>
